<?xml version="1.0" encoding="utf-8"?>
<svg viewBox="0 0 205.76 40.572" fill="none" xmlns="http://www.w3.org/2000/svg" xmlns:bx="https://boxy-svg.com">
  <defs>
    <linearGradient id="paint0_linear_259_216" x1="24.8902" y1="2.73139" x2="24.8902" y2="36.1177" gradientUnits="userSpaceOnUse">
      <stop stop-color="#02BDFF"/>
      <stop offset="1" stop-color="#505EFF"/>
    </linearGradient>
    <linearGradient id="paint1_linear_259_216" x1="36.5308" y1="2.73139" x2="36.5308" y2="36.1177" gradientUnits="userSpaceOnUse">
      <stop stop-color="#02BDFF"/>
      <stop offset="1" stop-color="#505EFF"/>
    </linearGradient>
    <linearGradient id="paint2_linear_259_216" x1="13.2606" y1="2.73142" x2="13.2606" y2="36.1177" gradientUnits="userSpaceOnUse">
      <stop stop-color="#02BDFF"/>
      <stop offset="1" stop-color="#505EFF"/>
    </linearGradient>
    <linearGradient id="paint3_linear_259_216" x1="22.039" y1="2.73133" x2="22.039" y2="36.1176" gradientUnits="userSpaceOnUse">
      <stop stop-color="#02BDFF"/>
      <stop offset="1" stop-color="#505EFF"/>
    </linearGradient>
    <linearGradient id="paint4_linear_259_216" x1="27.8673" y1="2.73137" x2="27.8673" y2="36.1177" gradientUnits="userSpaceOnUse">
      <stop stop-color="#02BDFF"/>
      <stop offset="1" stop-color="#505EFF"/>
    </linearGradient>
    <style bx:fonts="Bahianita">@import url(https://fonts.googleapis.com/css2?family=Bahianita%3Aital%2Cwght%400%2C400&amp;display=swap);</style>
  </defs>
  <path d="M24.428 5.30753C21.384 5.30753 18.3384 5.3673 15.2991 5.26379C14.5756 5.239 13.8329 4.72873 13.2591 4.20972C12.381 3.41807 11.6877 2.54332 11.7626 1.32304C11.8088 0.578044 12.3491 0.0254938 13.1237 0.00216712C14.1421 -0.0284491 14.5007 0.260218 14.6058 1.19474C14.6967 2.00534 15.4107 2.5856 16.335 2.5856C21.9848 2.58705 27.6346 2.58705 33.2844 2.5856C33.9761 2.5856 34.6502 2.68473 35.2989 2.89613C37.4058 3.57844 38.1979 5.83821 37.9764 7.14596C37.6337 9.16809 35.8647 10.5575 33.5984 10.6012C31.7719 10.6377 29.9423 10.6041 28.1143 10.6114C26.8824 10.6158 26.3947 11.0576 26.3883 12.1612C26.3819 13.1744 26.4218 14.1892 26.3724 15.1995C26.3437 15.7943 26.6178 15.8891 27.1549 15.7768C28.9239 15.4065 30.6165 14.8583 32.2596 14.1381C35.4838 12.7269 38.6951 12.9499 41.7423 14.5522C44.5808 16.0436 46.0869 18.4098 46.71 21.33C47.0559 22.9483 47.5069 24.5593 47.9149 26.1645C48.4376 28.2202 48.8313 30.3181 49.3795 32.3723C49.6505 33.3885 49.5819 34.4119 49.7668 35.4223C49.8417 35.8378 49.4417 36.3422 49.2122 36.7854C48.5954 37.9794 47.679 38.9213 46.3004 39.3907C45.6422 39.6152 45.0159 39.917 44.2844 39.9812C42.7783 40.1138 41.5654 39.5292 40.4387 38.739C38.633 37.4721 36.9452 36.0769 35.2718 34.6671C35.0487 34.479 34.808 34.3055 34.5833 34.1189C34.0606 33.6815 33.643 33.5853 32.8987 33.9658C30.4571 35.2138 28.1 34.4498 26.7533 32.2557C26.5812 31.9743 26.4361 31.8956 26.1445 31.8956C25.8114 31.897 25.4783 31.9145 25.1484 31.8912C24.0232 31.8125 23.1275 31.8606 22.4454 33.0094C21.6262 34.3915 18.9408 35.2444 16.7207 33.8783C16.1613 33.5343 15.8314 33.6057 15.3629 33.9818C13.1492 35.759 11.0741 37.6864 8.62934 39.2114C7.65717 39.8179 6.53358 40.1095 5.38291 39.9403C3.68877 39.6925 2.1795 39.016 1.19936 37.6733C0.208056 36.3145 -0.340188 34.8945 0.231962 33.1639C0.805706 31.429 1.14836 29.6168 1.43364 27.8163C1.6217 26.631 2.09344 25.5274 2.32613 24.3596C2.60822 22.9439 3.0465 21.5546 3.42421 20.155C3.98202 18.092 5.26019 16.465 7.05633 15.1543C8.84131 13.8509 10.9275 13.2852 13.1571 13.2648C15.0059 13.2473 16.794 13.6672 18.4308 14.4924C19.7743 15.1689 21.2677 15.4051 22.7116 15.7827C23.1578 15.8993 23.4829 15.8016 23.4558 15.2243C23.4048 14.1367 23.4256 13.0462 23.4447 11.9585C23.4877 9.62733 25.3811 7.92157 27.9422 7.90408C29.7144 7.89241 31.4867 7.90408 33.2589 7.90116C34.4861 7.8997 35.0311 7.48711 35.0295 6.56862C35.0279 5.6618 34.4925 5.26962 33.2286 5.26816C30.293 5.26525 27.3573 5.26816 24.4216 5.26816C24.4216 5.27983 24.4216 5.29149 24.4216 5.30315L24.428 5.30753ZM13.5094 15.9664C10.0892 15.9722 7.51054 17.6284 6.41884 20.3051C5.90247 21.5721 5.66819 22.9046 5.3335 24.208C4.51592 27.4037 3.82105 30.6257 3.08634 33.839C2.76281 35.2561 3.31902 36.3335 4.71832 37.0624C5.56778 37.5042 6.88899 37.2388 7.91376 36.4224C10.0159 34.7458 12.1164 33.0648 14.2281 31.3984C14.5867 31.1141 14.7939 30.8196 14.7525 30.3633C14.625 28.9418 16.1119 27.1952 17.7519 26.7433C19.4508 26.2753 21.5593 26.666 22.4151 28.0583C23.1403 29.2378 24.0519 29.3034 25.2217 29.2115C25.4958 29.1897 25.7763 29.194 26.052 29.2115C26.4186 29.2363 26.6274 29.1343 26.8266 28.8091C27.9183 27.0276 29.7878 26.2272 31.7417 26.6558C33.2892 26.9955 35.0519 28.2522 35.0295 30.5761C35.0264 30.8648 35.1905 31.0164 35.3722 31.2147C36.0368 31.9378 36.9038 32.4423 37.6767 33.0429C39.288 34.2967 40.7176 35.7401 42.4882 36.8292C43.5672 37.494 44.584 37.3015 45.5625 36.7446C46.5379 36.1891 46.9539 35.2852 46.8088 34.2749C46.6542 33.1916 46.3227 32.1288 46.063 31.0573C45.4892 28.6911 44.9234 26.3234 44.3322 23.9601C43.9991 22.629 43.7807 21.2528 43.2405 19.9917C41.6419 16.2565 36.8034 15.0712 33.3338 16.6006C30.3105 17.9331 27.1852 18.7335 23.7842 18.5542C21.9689 18.4579 20.2445 18.1051 18.5966 17.4447C16.8642 16.7493 15.1397 16.0567 13.5078 15.9649L13.5094 15.9664ZM30.7344 29.3384C29.8945 29.3325 29.2554 29.8341 29.2236 30.5207C29.1949 31.1506 30.0013 31.9364 30.6611 31.9218C31.5122 31.9028 32.2118 31.2701 32.1975 30.5324C32.1831 29.7889 31.6397 29.3457 30.7344 29.3384ZM20.415 30.6213C20.423 29.6533 20.1026 29.3471 19.0731 29.3384C18.2204 29.3325 17.6116 29.8137 17.5877 30.5135C17.5654 31.1958 18.2714 31.9116 18.979 31.9218C19.8269 31.9349 20.407 31.4086 20.4134 30.6199L20.415 30.6213Z" fill="url(#paint0_linear_259_216)" transform="matrix(0.9999999999999999, 0, 0, 0.9999999999999999, -3.552713678800501e-15, 0)"/>
  <path d="M40.8562 22.5489C40.8578 23.409 40.182 24.0695 39.1556 23.9966C38.1835 23.928 37.9476 24.224 38.0066 25.0681C38.0671 25.9458 37.385 26.5756 36.5579 26.6019C35.812 26.6252 35.0741 25.8831 35.039 25.0769C35.0103 24.3907 34.6119 24.0384 33.8437 24.0199C32.964 23.9995 32.199 23.3055 32.207 22.5387C32.2149 21.7397 32.7457 21.3228 33.8023 21.2819C33.9665 21.2761 34.129 21.2586 34.2932 21.244C34.8749 21.1945 35.1458 20.9393 35.0486 20.3736C35.0072 20.1331 35.0183 19.8561 35.1092 19.6316C35.3514 19.0265 35.7897 18.5571 36.5531 18.5833C37.4408 18.6154 37.9205 19.0921 38.0305 19.9188C38.0894 20.3605 37.801 20.9451 38.1851 21.2061C38.4927 21.4146 39.0887 21.263 39.5557 21.2848C40.3653 21.3213 40.8546 21.8009 40.8562 22.5489Z" fill="url(#paint1_linear_259_216)" transform="matrix(0.9999999999999999, 0, 0, 0.9999999999999999, -3.552713678800501e-15, 0)"/>
  <path d="M14.5994 20.2177C14.5919 20.9262 14.9834 21.2815 15.7739 21.2834C16.8896 21.2849 17.4187 21.5677 17.5844 22.2515C17.7932 23.1116 17.0696 23.9354 16.0289 24.0185C15.919 24.0272 15.8074 24.0185 15.6974 24.0199C14.9558 24.0248 14.5898 24.3567 14.5994 25.0157C14.6137 26.0435 14.1324 26.5902 13.2064 26.6034C12.4287 26.6136 11.7099 25.8657 11.7928 24.9749C11.8693 24.1614 11.5553 23.9077 10.7106 24.0141C9.96637 24.1089 9.44682 23.7269 9.09301 23.1831C8.69617 22.5751 8.98304 22.0051 9.35916 21.489C9.53925 21.2426 9.77194 21.0472 10.1911 21.2382C10.6389 21.4423 11.0995 21.1755 11.5553 21.1172C11.89 21.0735 11.745 20.8052 11.7721 20.6288C11.831 20.2337 11.6398 19.8095 11.8804 19.4421C12.2486 18.8837 12.6773 18.4376 13.5347 18.6679C14.4846 18.9231 14.6137 19.0645 14.6025 20.2191L14.5994 20.2177Z" fill="url(#paint2_linear_259_216)" transform="matrix(0.9999999999999999, 0, 0, 0.9999999999999999, -3.552713678800501e-15, 0)"/>
  <path d="M22.0183 23.8857C21.2198 23.8959 20.5919 23.3492 20.56 22.6159C20.5249 21.814 21.0923 21.2804 21.98 21.2833C22.5984 21.2848 23.5371 21.9044 23.5212 22.301C23.4829 23.253 22.8932 23.8741 22.0199 23.8857H22.0183Z" fill="url(#paint3_linear_259_216)" transform="matrix(0.9999999999999999, 0, 0, 0.9999999999999999, -3.552713678800501e-15, 0)"/>
  <path d="M27.794 23.8858C26.962 23.8697 26.3548 23.2705 26.3899 22.4964C26.4249 21.7178 26.9636 21.2673 27.8465 21.2834C28.4075 21.2936 29.3431 21.9088 29.3478 22.2718C29.3574 23.2166 28.6976 23.9033 27.7955 23.8858H27.794Z" fill="url(#paint4_linear_259_216)" transform="matrix(0.9999999999999999, 0, 0, 0.9999999999999999, -3.552713678800501e-15, 0)"/>
  <text style="fill: rgb(255, 255, 255); font-family: Bahianita; font-size: 55px; white-space: pre;" x="63.647" y="23.196" dx="-10.596 0 0 0 0.286" dy="16.037 0 0 0 0.143" transform="matrix(0.9999999999999999, 0, 0, 0.9999999999999999, -3.552713678800501e-15, 0)">BrumGames</text>
</svg>